<svg width="29" height="28" viewBox="0 0 128 128" fill="none" xmlns="http://www.w3.org/2000/svg">
<path d="M42.4375 91C19.9534 93.4639 4 99.6681 4 106.932C4 116.359 30.8629 124 64 124C97.1371 124 124 116.359 124 106.932C124 99.6681 108.047 93.4639 85.5625 91" stroke="black" stroke-width="8"/>
<path d="M100 37C100 46.4961 95.7177 65.6969 88.5976 82.611C85.0542 91.0287 80.9229 98.5957 76.4823 103.987C71.9435 109.497 67.705 112 64 112C60.295 112 56.0565 109.497 51.5177 103.987C47.0771 98.5957 42.9458 91.0287 39.4024 82.611C32.2823 65.6969 28 46.4961 28 37C28 19.0625 43.8184 4 64 4C84.1816 4 100 19.0625 100 37Z" stroke="#464646" stroke-width="8"/>
<circle cx="63.5" cy="41.5" r="18.5" stroke="black" stroke-width="8"/>
</svg>
