<svg width="28" height="28" viewBox="0 0 128 128" fill="none" xmlns="http://www.w3.org/2000/svg">
<path d="M94.1269 19.7329L94.1534 19.7469L94.1802 19.7605L123.466 34.636L122.952 64.0697L122.951 64.1064L122.951 64.1431L122.977 93.5813L93.449 107.969L93.422 107.982L93.3953 107.996L63.7496 122.996L34.3567 107.507L34.3301 107.493L34.3034 107.479L5.01803 92.6035L5.53191 63.1698L5.53255 63.1331L5.53252 63.0964L5.50662 33.6582L35.0346 19.2702L35.0615 19.2571L35.0883 19.2436L64.7339 4.24397L94.1269 19.7329Z" stroke="black" stroke-width="8"/>
<line x1="7.70952" y1="37.3837" x2="62.7095" y2="63.3837" stroke="black" stroke-width="8"/>
<path d="M120.754 35.0819L106.5 41.9997M62.9915 63.1153L83 53.4048" stroke="black" stroke-width="8"/>
<line x1="63" y1="63" x2="63" y2="124" stroke="black" stroke-width="8"/>
<path d="M14.5 79L39.5 92" stroke="black" stroke-width="4" stroke-linecap="round"/>
<path d="M13 86.5L27.5 94" stroke="black" stroke-width="4" stroke-linecap="round"/>
<mask id="path-7-inside-1_1_25" fill="white">
<path fill-rule="evenodd" clip-rule="evenodd" d="M113.5 43L47.5 8.50003L35.6078 14.5549L18.5001 23L83.0002 57.2346V74.5296C83.0002 76.6625 85.1633 78.1142 87.1371 77.3059L111.661 67.263C112.788 66.8015 113.524 65.7045 113.524 64.4868V54.5V43L113.382 43.0592L113.5 43Z"/>
</mask>
<path d="M47.5 8.50006L51.206 1.41025L47.5483 -0.501744L43.8702 1.37091L47.5 8.50006ZM113.5 43L117.078 50.1554L131.072 43.1583L117.206 35.9102L113.5 43ZM35.6078 14.5549L39.149 21.7284L39.1934 21.7065L39.2376 21.684L35.6078 14.5549ZM18.5001 23.0001L14.9589 15.8265L0.94985 22.742L14.7495 30.0664L18.5001 23.0001ZM83.0002 57.2347H91.0002V52.4238L86.7508 50.1683L83.0002 57.2347ZM87.1371 77.3059L84.1053 69.9026L84.1053 69.9026L87.1371 77.3059ZM111.661 67.263L108.629 59.8597V59.8597L111.661 67.263ZM113.524 43H121.524V30.9973L110.445 35.6161L113.524 43ZM113.382 43.0592L109.804 35.9038L116.46 50.4432L113.382 43.0592ZM43.794 15.5899L109.794 50.0898L117.206 35.9102L51.206 1.41025L43.794 15.5899ZM39.2376 21.684L51.1297 15.6292L43.8702 1.37091L31.978 7.42574L39.2376 21.684ZM22.0413 30.1736L39.149 21.7284L32.0666 7.38133L14.9589 15.8265L22.0413 30.1736ZM86.7508 50.1683L22.2506 15.9337L14.7495 30.0664L79.2496 64.301L86.7508 50.1683ZM91.0002 74.5297V57.2347H75.0002V74.5297H91.0002ZM84.1053 69.9026C87.395 68.5554 91.0002 70.9749 91.0002 74.5297H75.0002C75.0002 82.3502 82.9316 87.673 90.1689 84.7091L84.1053 69.9026ZM108.629 59.8597L84.1053 69.9026L90.1689 84.7092L114.692 74.6663L108.629 59.8597ZM105.524 64.4868C105.524 62.4572 106.751 60.6289 108.629 59.8597L114.692 74.6663C118.825 72.9741 121.524 68.9519 121.524 64.4868H105.524ZM105.524 54.5V64.4868H121.524V54.5H105.524ZM105.524 43V54.5H121.524V43H105.524ZM116.46 50.4432L116.602 50.384L110.445 35.6161L110.303 35.6753L116.46 50.4432ZM109.922 35.8446L109.804 35.9038L116.959 50.2147L117.078 50.1554L109.922 35.8446Z" fill="#464646" mask="url(#path-7-inside-1_1_25)"/>
</svg>
