<svg width="32" height="32" viewBox="0 0 32 32" fill="none" xmlns="http://www.w3.org/2000/svg">
<path d="M29.5781 15.7812L16.7062 2.91868C16.6135 2.82581 16.5035 2.75214 16.3823 2.70187C16.2611 2.65161 16.1312 2.62573 16 2.62573C15.8688 2.62573 15.7389 2.65161 15.6177 2.70187C15.4965 2.75214 15.3864 2.82581 15.2937 2.91868L2.42185 15.7812C2.04685 16.1562 1.83435 16.6656 1.83435 17.1968C1.83435 18.2999 2.73123 19.1968 3.83435 19.1968H5.1906V28.3749C5.1906 28.9281 5.63748 29.3749 6.1906 29.3749H14V22.3749H17.5V29.3749H25.8094C26.3625 29.3749 26.8094 28.9281 26.8094 28.3749V19.1968H28.1656C28.6968 19.1968 29.2062 18.9874 29.5812 18.6093C30.3593 17.8281 30.3594 16.5624 29.5781 15.7812V15.7812Z" fill="#B6B6B6"/>
</svg>
