<svg width="32" height="32" viewBox="0 0 128 128" fill="none" xmlns="http://www.w3.org/2000/svg">
<path d="M25.5048 37H87.0015C89.0867 37 90.8221 38.6019 90.9887 40.6804L97.3204 119.68C97.5069 122.008 95.6683 124 93.3332 124H17.8164C15.4541 124 13.6064 121.964 13.8352 119.613L21.5236 40.6125C21.7231 38.5632 23.4458 37 25.5048 37Z" stroke="#D4AF37" stroke-width="8"/>
<path d="M25.4672 37H103.032C105.083 37 106.802 38.5514 107.012 40.5918L115.116 119.592C115.358 121.95 113.508 124 111.137 124H17.8126C15.451 124 13.6035 121.965 13.8313 119.614L21.4858 40.6142C21.6845 38.5641 23.4075 37 25.4672 37Z" stroke="#D4AF37" stroke-width="8"/>
<path d="M78 48C78 23.6995 68.1503 4 56 4C43.8497 4 34 23.6995 34 48" stroke="#D4AF37" stroke-width="8"/>
<path d="M91 38C91 19.2223 82.2696 4 71.5 4C60.7304 4 52 19.2223 52 38" stroke="#D4AF37" stroke-width="8"/>
<rect x="23" y="105" width="14" height="10" rx="4" fill="#121212"/>
<rect x="48" y="105" width="15" height="10" rx="4" fill="#121212"/>
<rect x="74" y="105" width="14" height="10" rx="4" fill="#121212"/>
</svg>
